{"title":"Jism 2 2012 Audio Cleaned 1CD ScamRip - Hindi Movie","uid":7499749,"size":717967360,"categoryP":"video","categoryS":"movies","magnet":"?xt=urn:btih:90ab4164fd2c184a38752b20e00e19bc51baaeb3&amp;dn=Jism+2+2012+Audio+Cleaned+1CD+ScamRip+-+Hindi+Movie&amp;tr=udp%3A%2F%2Ftracker.openbittorrent.com%3A80&amp;tr=udp%3A%2F%2Fopen.demonii.com%3A1337&amp;tr=udp%3A%2F%2Ftracker.coppersurfer.tk%3A6969&amp;tr=udp%3A%2F%2Fexodus.desync.com%3A6969","seeders":0,"leechers":1,"uploader":"SJonam","files":1,"time":1343981874,"description":" &lt;a href=&quot;\nhttp://desibbrg.org/images/66952052392581364616.gif&quot; rel=&quot;nofollow&quot; target=&quot;_NEW&quot;&gt;\nhttp://desibbrg.org/images/66952052392581364616.gif&lt;/a&gt;\n &lt;a href=&quot;\nhttp://desibbrg.org/images/61551014365798370506.jpg&quot; rel=&quot;nofollow&quot; target=&quot;_NEW&quot;&gt;\nhttp://desibbrg.org/images/61551014365798370506.jpg&lt;/a&gt;\n &lt;a href=&quot;\nhttp://desibbrg.org/images/96875539711874180906.jpg&quot; rel=&quot;nofollow&quot; target=&quot;_NEW&quot;&gt;\nhttp://desibbrg.org/images/96875539711874180906.jpg&lt;/a&gt;\n\n\nInfo - \nSunny Leone as Izna\nRandeep Hooda as Kabir\nArunoday Singh as Ayaan\nImran Zahid\nMohan Agashe\nArif Zakaria\n\nMedia Info - \nGeneral\nFormat : MPEG-PS\nFile size : 685 MiB\nDuration : 1h 57mn\nOverall bit rate : 815 Kbps\nVideo #224\nID : 224 (0xE0)\nFormat : MPEG Video\nFormat version : Version 2\nFormat settings, BVOP : Yes\nFormat settings, Matrix : Custom\nDuration : 1h 57mn\nBit rate mode : Constant\nBit rate : 735 Kbps\nNominal bit rate : 1 150 Kbps\nWidth : 352 pixels\nHeight : 288 pixels\nDisplay aspect ratio : 1.222\nFrame rate : 25.000 fps\nStandard : PAL\nColor space : YUV\nBit depth : 8 bits\nScan type : Progressive\nCompression mode : Lossy\nBits/(Pixel*Frame) : 0.290\nStream size : 617 MiB (90%)\n\nAudio #192\nID : 192 (0xC0)\nFormat : MPEG Audio\nFormat version : Version 1\nFormat profile : Layer 2\nDuration : 1h 57mn\nBit rate mode : Constant\nBit rate : 64.0 Kbps\nChannel(s) : 2 channels\nSampling rate : 48.0 KHz\nCompression mode : Lossy\nStream size : 53.8 MiB (8%)\n\nRipper : Pherari Mon\n\nSeeding 24x7... Extreme Seeding...\n\n\nEnjoy!\n","torrent":{"xt":"urn:btih:90ab4164fd2c184a38752b20e00e19bc51baaeb3","amp;dn":"Jism+2+2012+Audio+Cleaned+1CD+ScamRip+-+Hindi+Movie","amp;tr":["udp%3A%2F%2Ftracker.openbittorrent.com%3A80","udp%3A%2F%2Fopen.demonii.com%3A1337","udp%3A%2F%2Ftracker.coppersurfer.tk%3A6969","udp%3A%2F%2Fexodus.desync.com%3A6969"],"infoHash":"90ab4164fd2c184a38752b20e00e19bc51baaeb3","infoHashBuffer":{"type":"Buffer","data":[144,171,65,100,253,44,24,74,56,117,43,32,224,14,25,188,81,186,174,179]},"announce":[],"urlList":[]}}